<svg width="450" height="450" viewBox="0 0 450 450" fill="none" xmlns="http://www.w3.org/2000/svg">
<g style="mix-blend-mode:difference">
<circle cx="225" cy="225" r="224.653" fill="url(#paint0_linear_2117_2)"/>
<path d="M449.653 225C449.653 180.568 436.477 137.133 411.792 100.189C387.107 63.2454 352.021 34.4511 310.971 17.4476C269.921 0.444161 224.751 -4.00472 181.172 4.66357C137.594 13.3319 97.5646 34.728 66.1463 66.1463C34.728 97.5646 13.3319 137.594 4.66357 181.172C-4.00472 224.751 0.444162 269.921 17.4476 310.971C34.4511 352.021 63.2454 387.107 100.189 411.792C137.133 436.477 180.568 449.653 225 449.653L225 225H449.653Z" fill="#D9D9D9"/>
<path d="M449.653 225C449.653 180.568 436.477 137.133 411.792 100.189C387.107 63.2454 352.021 34.4511 310.971 17.4476C269.921 0.444161 224.751 -4.00472 181.172 4.66357C137.594 13.3319 97.5646 34.728 66.1463 66.1463C34.728 97.5646 13.3319 137.594 4.66357 181.172C-4.00472 224.751 0.444162 269.921 17.4476 310.971C34.4511 352.021 63.2454 387.107 100.189 411.792C137.133 436.477 180.568 449.653 225 449.653L225 225H449.653Z" fill="url(#paint1_diamond_2117_2)"/>
<path d="M0.346965 225C0.346969 269.432 13.5226 312.867 38.2078 349.811C62.893 386.755 97.9791 415.549 139.029 432.552C180.079 449.556 225.249 454.005 268.828 445.336C312.406 436.668 352.435 415.272 383.854 383.854C415.272 352.435 436.668 312.406 445.336 268.828C454.005 225.249 449.556 180.079 432.552 139.029C415.549 97.9791 386.755 62.893 349.811 38.2079C312.867 13.5227 269.432 0.347 225 0.347005L225 225L0.346965 225Z" fill="url(#paint2_diamond_2117_2)"/>
<circle cx="225" cy="225" r="224.653" fill="url(#paint3_linear_2117_2)"/>
<path d="M449.653 225C449.653 180.568 436.477 137.133 411.792 100.189C387.107 63.2454 352.021 34.4511 310.971 17.4476C269.921 0.444161 224.751 -4.00472 181.172 4.66357C137.594 13.3319 97.5646 34.728 66.1463 66.1463C34.728 97.5646 13.3319 137.594 4.66357 181.172C-4.00472 224.751 0.444162 269.921 17.4476 310.971C34.4511 352.021 63.2454 387.107 100.189 411.792C137.133 436.477 180.568 449.653 225 449.653L225 225H449.653Z" fill="#C8C8C8"/>
<path d="M449.653 225C449.653 180.568 436.477 137.133 411.792 100.189C387.107 63.2454 352.021 34.4511 310.971 17.4476C269.921 0.444161 224.751 -4.00472 181.172 4.66357C137.594 13.3319 97.5646 34.728 66.1463 66.1463C34.728 97.5646 13.3319 137.594 4.66357 181.172C-4.00472 224.751 0.444162 269.921 17.4476 310.971C34.4511 352.021 63.2454 387.107 100.189 411.792C137.133 436.477 180.568 449.653 225 449.653L225 225H449.653Z" fill="url(#paint4_diamond_2117_2)"/>
<path d="M0.346965 225C0.346969 269.432 13.5226 312.867 38.2078 349.811C62.893 386.755 97.9791 415.549 139.029 432.552C180.079 449.556 225.249 454.005 268.828 445.336C312.406 436.668 352.435 415.272 383.854 383.854C415.272 352.435 436.668 312.406 445.336 268.828C454.005 225.249 449.556 180.079 432.552 139.029C415.549 97.9791 386.755 62.893 349.811 38.2079C312.867 13.5227 269.432 0.347 225 0.347005L225 225L0.346965 225Z" fill="url(#paint5_diamond_2117_2)"/>
</g>
<defs>
<linearGradient id="paint0_linear_2117_2" x1="110.471" y1="39.9916" x2="427.628" y2="410.008" gradientUnits="userSpaceOnUse">
<stop stop-color="#A9A9A9"/>
<stop offset="1" stop-color="#6F6F6F" stop-opacity="0"/>
</linearGradient>
<radialGradient id="paint1_diamond_2117_2" cx="0" cy="0" r="1" gradientUnits="userSpaceOnUse" gradientTransform="translate(225 225) rotate(90) scale(224.653)">
<stop stop-color="#777777"/>
<stop offset="1" stop-opacity="0"/>
</radialGradient>
<radialGradient id="paint2_diamond_2117_2" cx="0" cy="0" r="1" gradientUnits="userSpaceOnUse" gradientTransform="translate(225 225) rotate(-90) scale(224.653)">
<stop stop-color="#777777"/>
<stop offset="1" stop-opacity="0"/>
</radialGradient>
<linearGradient id="paint3_linear_2117_2" x1="110.471" y1="39.9916" x2="427.628" y2="410.008" gradientUnits="userSpaceOnUse">
<stop stop-color="#C4C4C4"/>
<stop offset="1" stop-opacity="0"/>
</linearGradient>
<radialGradient id="paint4_diamond_2117_2" cx="0" cy="0" r="1" gradientUnits="userSpaceOnUse" gradientTransform="translate(225 225) rotate(90) scale(224.653)">
<stop/>
<stop offset="1" stop-opacity="0"/>
</radialGradient>
<radialGradient id="paint5_diamond_2117_2" cx="0" cy="0" r="1" gradientUnits="userSpaceOnUse" gradientTransform="translate(225 225) rotate(-90) scale(224.653)">
<stop/>
<stop offset="1" stop-opacity="0"/>
</radialGradient>
</defs>
</svg>
